<svg width="56" height="59" viewBox="0 0 56 59" fill="none" xmlns="http://www.w3.org/2000/svg">
<path d="M44 59L44 12L20.8421 12.0001L0 12.0001L-2.08064e-06 59L44 59Z" fill="#DE4E28"/>
<path d="M11 11L11 4.31609e-07L1 11L11 11Z" fill="#398D8D"/>
<path d="M45 37H56L45 58L45 37Z" fill="#398D8D"/>
<path d="M24.6119 16H39V55H28.6941L30.4926 25.7659H28.4366L26.6195 55H16.3805L15.2787 31.5916L13.2228 31.6L14.3059 55H4V29.6341C4 27.4358 4.78075 25.5967 6.34226 24.1171C7.94837 22.5951 9.91141 21.8341 12.2314 21.8341H16.5813C16.9828 20.1008 17.942 18.7057 19.4589 17.6488C20.9758 16.5496 22.6934 16 24.6119 16Z" fill="#E9E3D3"/>
</svg>
