<svg width="134" height="59" viewBox="0 0 134 59" fill="none" xmlns="http://www.w3.org/2000/svg">
<path d="M45.9999 13H53.2737C54.469 13 55.4614 13.4173 56.2508 14.252C57.0402 15.0867 57.4349 16.136 57.4349 17.4V35H50.1612C48.9432 35 47.9396 34.5946 47.1502 33.7837C46.3833 32.949 45.9999 31.8878 45.9999 30.6V24.0179C45.9999 22.7539 46.3946 21.7046 47.184 20.8699C47.9734 20.0352 48.9658 19.6179 50.1612 19.6179H52.2587V18.5089H45.9999V13ZM52.2587 25.0911H51.2099V29.5268H52.2587V25.0911Z" fill="#398D8D"/>
<path d="M62.6828 13H69.9566V23.4455H64.7804V18.5089H63.7316V35H58.5215V17.4C58.5215 16.136 58.9162 15.0867 59.7056 14.252C60.495 13.4173 61.4874 13 62.6828 13Z" fill="#398D8D"/>
<path d="M82.4782 13V21.8C82.4782 22.4439 81.7903 23.7079 80.4145 25.5919C80.4822 25.6634 80.8881 26.045 81.6324 26.7366C82.1963 27.2612 82.4782 27.6905 82.4782 28.0244V35H77.302V28.4179C77.0765 28.1556 76.7269 27.8694 76.2532 27.5593V35H71.0432V13H76.2532V21.9431H77.302V13H82.4782Z" fill="#398D8D"/>
<path d="M87.7261 13H90.8386C92.034 13 93.0264 13.4173 93.8158 14.252C94.6052 15.0867 94.9999 16.136 94.9999 17.4V24.0179C94.9999 25.3057 94.6052 26.3669 93.8158 27.2016C93.0489 28.0125 92.0565 28.4179 90.8386 28.4179H88.7749V29.5268H94.9999V35H87.7261C86.5307 35 85.5383 34.5827 84.7489 33.748C83.9595 32.9133 83.5648 31.864 83.5648 30.6V17.4C83.5648 16.136 83.9595 15.0867 84.7489 14.252C85.5383 13.4173 86.5307 13 87.7261 13ZM89.8237 18.5089H88.7749V22.9089H89.8237V18.5089Z" fill="#398D8D"/>
<path d="M96.9999 22.8889H99.9999V26H96.9999V22.8889Z" fill="#DE4E28"/>
<path d="M113.83 20.1545H107.564V29.5268H108.62V21.2634H113.83V35H106.508C105.282 35 104.272 34.5946 103.477 33.7837C102.705 32.9491 102.319 31.8878 102.319 30.6V13H107.564V14.6455H113.83V20.1545Z" fill="#398D8D"/>
<path d="M119.113 13H122.246C123.45 13 124.449 13.4173 125.243 14.252C126.038 15.0867 126.435 16.136 126.435 17.4V24.0179C126.435 25.3057 126.038 26.3669 125.243 27.2016C124.471 28.0125 123.472 28.4179 122.246 28.4179H120.169V29.5268H126.435V35H119.113C117.91 35 116.911 34.5827 116.116 33.748C115.321 32.9133 114.924 31.864 114.924 30.6V17.4C114.924 16.136 115.321 15.0867 116.116 14.252C116.911 13.4173 117.91 13 119.113 13ZM121.225 18.5089H120.169V22.9089H121.225V18.5089Z" fill="#398D8D"/>
<path d="M127.529 13H132.774V29.5875L134 29.5875V35H127.529V13Z" fill="#398D8D"/>
<path d="M44 59L44 12L20.8421 12.0001L0 12.0001L-2.08064e-06 59L44 59Z" fill="#DE4E28"/>
<path d="M11 11L11 4.31609e-07L1 11L11 11Z" fill="#398D8D"/>
<path d="M45 37H56L45 58L45 37Z" fill="#398D8D"/>
<path d="M24.6119 16H39V55H28.6941L30.4926 25.7659H28.4366L26.6195 55H16.3805L15.2787 31.5916L13.2228 31.6L14.3059 55H4V29.6341C4 27.4358 4.78075 25.5967 6.34226 24.1171C7.94837 22.5951 9.91141 21.8341 12.2314 21.8341H16.5813C16.9828 20.1008 17.942 18.7057 19.4589 17.6488C20.9758 16.5496 22.6934 16 24.6119 16Z" fill="#E9E3D3"/>
</svg>
